<svg xmlns="http://www.w3.org/2000/svg" fill="#fff" width="32" height="32" viewBox="0 0 15.36 15.36"><g id="Layer_2" data-name="Layer 2"><g id="Layer_1-2" data-name="Layer 1"><path d="M5.18,11.46,3.26,4.11A4.83,4.83,0,0,0,3,7.76a11.9,11.9,0,0,1,.62,3.58L2.46,7.12,1.25,11.47,1,11.4,3.09,3.12l.26,0,2,7.61,2-7.56h.24l2,7.69,2-7.68.26,0L14,11.41l-.29.08L11.82,4.24C11.1,5.85,11.1,6,11.54,7.73a16.52,16.52,0,0,1,.6,3.6c-.18-.63-.37-1.26-.54-1.9s-.35-1.37-.6-2.34L9.76,11.54l-.32,0L7.48,4l-2,7.56Z"/></g></g></svg>